<?xml version="1.0" encoding="UTF-8"?>
<svg version="1.1" xmlns="http://www.w3.org/2000/svg" width="691" height="228">
<path d="M0 0 C6.09905241 2.6221123 10.3374775 9.04861646 14.48046875 14.06640625 C16.25126829 16.16995707 18.0457911 18.2454819 19.85546875 20.31640625 C20.60570313 21.2084375 21.3559375 22.10046875 22.12890625 23.01953125 C24.9252867 25.45358998 26.83305814 25.79311324 30.48046875 26.06640625 C30.82078125 25.463125 31.16109375 24.85984375 31.51171875 24.23828125 C34.94468307 18.57754221 37.9344472 14.81587396 44.48046875 13.06640625 C49.98043092 12.24616071 55.2126594 12.3707945 59.9375 15.546875 C63.7690456 19.3202199 66.21382328 24.14266201 66.703125 29.5078125 C66.30439569 35.2553496 64.2919551 39.48307717 59.98828125 43.4375 C57.88280634 45.20253742 55.71519815 46.88468026 53.54296875 48.56640625 C52.22606371 50.10874808 52.22606371 50.10874808 52.54296875 52.62890625 C53.71977654 55.68860651 54.58206186 55.74142024 57.48046875 57.06640625 C58.07214844 57.81921875 58.66382813 58.57203125 59.2734375 59.34765625 C61.6115744 62.22790984 64.0600768 64.28785869 66.98046875 66.56640625 C70.70615761 69.47326239 73.57665855 72.34749144 76.48046875 76.06640625 C77.14046875 76.39640625 77.80046875 76.72640625 78.48046875 77.06640625 C79.31100746 83.71071592 79.31100746 83.71071592 77.34375 86.921875 C75.46614998 89.05406485 73.48289283 91.05058803 71.48046875 93.06640625 C70.48806215 94.15785001 69.50148143 95.2546081 68.51953125 96.35546875 C67.46503527 97.53011988 66.41034711 98.7045985 65.35546875 99.87890625 C64.85305664 100.44246826 64.35064453 101.00603027 63.83300781 101.58666992 C60.20359276 105.55552237 56.99852151 108.80946209 51.41796875 109.37890625 C48.4595445 109.06418027 46.94815041 108.66964545 44.48046875 107.06640625 C43.50390625 105.11328125 43.50390625 105.11328125 42.85546875 102.81640625 C42.61570312 102.01589844 42.3759375 101.21539062 42.12890625 100.390625 C41.91492188 99.62363281 41.7009375 98.85664063 41.48046875 98.06640625 C40.23266603 93.18734074 40.23266603 93.18734074 36.48046875 90.06640625 C31.01979412 89.65368084 26.23896728 90.98084101 21.9921875 94.42578125 C18.51350937 98.20109085 16.49609488 102.48418774 16.46484375 107.6484375 C16.69796701 109.82539732 17.01538481 111.92803116 17.48046875 114.06640625 C18.4446875 114.2365625 19.40890625 114.40671875 20.40234375 114.58203125 C22.29726562 114.94554687 22.29726562 114.94554687 24.23046875 115.31640625 C25.4834375 115.5484375 26.73640625 115.78046875 28.02734375 116.01953125 C31.69952797 117.13281787 33.20315364 118.02252561 35.48046875 121.06640625 C36.2597345 125.31694668 36.47864284 127.55241594 34.08203125 131.1875 C32.29393491 133.25279031 30.44214861 135.16543602 28.48046875 137.06640625 C27.30484375 138.2575 27.30484375 138.2575 26.10546875 139.47265625 C12.75454397 152.66464145 12.75454397 152.66464145 7.04296875 153.06640625 C3.27306477 152.00818759 1.96729927 150.94345796 -0.25 147.76953125 C-1.63123409 145.9165526 -3.09873907 144.64078176 -4.89453125 143.19140625 C-8.90297902 139.87286561 -12.15613017 136.01987769 -15.51953125 132.06640625 C-17.70911437 129.55482562 -18.94153646 128.29760417 -22.01953125 127.06640625 C-24.5984442 126.81133409 -24.5984442 126.81133409 -26.45703125 128.56640625 C-27.13765625 129.39140625 -27.81828125 130.21640625 -28.51953125 131.06640625 C-29.53694853 132.2776173 -30.55800418 133.48577832 -31.58203125 134.69140625 C-32.31099609 135.57699219 -32.31099609 135.57699219 -33.0546875 136.48046875 C-36.47451835 140.18300562 -39.64718414 140.73607763 -44.51953125 141.06640625 C-50.44239383 139.83247655 -55.62950936 136.6552967 -59.19921875 131.765625 C-61.72719825 126.59747757 -61.49931375 120.34401201 -59.86328125 114.87109375 C-57.47757546 110.1202486 -54.15376129 108.21188312 -49.51953125 106.06640625 C-48.85953125 106.06640625 -48.19953125 106.06640625 -47.51953125 106.06640625 C-47.75136998 102.12514792 -47.97839402 99.72591725 -50.51953125 96.62890625 C-52.00453125 95.36046875 -52.00453125 95.36046875 -53.51953125 94.06640625 C-55.02357501 92.75854211 -56.52324485 91.44563828 -58.01953125 90.12890625 C-58.79941406 89.44441406 -59.57929687 88.75992188 -60.3828125 88.0546875 C-62.18073948 86.38166221 -63.69912516 84.74398847 -65.20703125 82.81640625 C-67.40667637 79.87585727 -67.40667637 79.87585727 -70.83203125 78.19140625 C-73.51953125 76.06640625 -73.51953125 76.06640625 -74.39453125 72.31640625 C-74.11766553 68.39657053 -72.53132428 66.64113651 -69.76953125 63.94140625 C-69.0734375 63.34070313 -68.37734375 62.74 -67.66015625 62.12109375 C-65.37309231 60.07505313 -65.37309231 60.07505313 -63.5859375 57.15625 C-61.40303626 53.8922143 -59.07608334 51.42817121 -56.20703125 48.75390625 C-55.30339844 47.89152344 -54.39976563 47.02914062 -53.46875 46.140625 C-50.02032931 43.7153119 -47.69939973 43.24771356 -43.51953125 43.06640625 C-40.2778484 44.1469672 -39.30802314 45.15102575 -37.49609375 47.97265625 C-35.77946839 51.65310102 -35.05836996 55.59537169 -34.23046875 59.5546875 C-33.99585938 60.38355469 -33.76125 61.21242187 -33.51953125 62.06640625 C-30.44758217 63.60238079 -27.91708832 63.29291005 -24.51953125 63.06640625 C-18.6862424 61.12197663 -15.07162497 56.9199558 -11.51953125 52.06640625 C-10.32618534 48.48636852 -10.18409901 45.82324729 -10.51953125 42.06640625 C-14.24034862 38.38102523 -18.78682849 37.93920484 -23.7421875 36.91015625 C-26.6179478 36.03650755 -27.79137145 35.48697445 -29.51953125 33.06640625 C-30.55615349 29.67825168 -30.87050178 26.29480312 -29.89453125 22.87890625 C-26.20736618 18.01855229 -21.42782664 14.12221349 -16.84375 10.13671875 C-15.3458206 8.80242869 -13.88557327 7.42396317 -12.4765625 5.99609375 C-8.73015762 2.30203384 -5.47654338 -0.44302502 0 0 Z " fill="#FFC801" transform="translate(98.51953125,37.93359375)"/>
<path d="M0 0 C10.99777876 6.69774635 18.3718809 15.93219804 21.7578125 28.51171875 C24.17470155 45.06165428 21.42123271 58.65374785 12.04296875 72.4453125 C5.18638819 80.23787072 -4.89962112 84.46799259 -15.0546875 85.27734375 C-24.44974991 85.42269633 -31.56876366 83.31332253 -38.83203125 77.3203125 C-39.49203125 76.6603125 -40.15203125 76.0003125 -40.83203125 75.3203125 C-40.83203125 88.8503125 -40.83203125 102.3803125 -40.83203125 116.3203125 C-48.42203125 116.3203125 -56.01203125 116.3203125 -63.83203125 116.3203125 C-63.83203125 78.0403125 -63.83203125 39.7603125 -63.83203125 0.3203125 C-56.90203125 0.3203125 -49.97203125 0.3203125 -42.83203125 0.3203125 C-42.50203125 2.9603125 -42.17203125 5.6003125 -41.83203125 8.3203125 C-41.35765625 7.5984375 -40.88328125 6.8765625 -40.39453125 6.1328125 C-30.86517932 -4.3262323 -12.48925088 -6.14789286 0 0 Z M-36.58203125 24.12109375 C-41.52952742 30.24599887 -43.51402656 36.40916691 -42.83203125 44.3203125 C-41.3233827 51.0502994 -38.85017656 56.38221536 -33.1171875 60.57421875 C-27.58467737 63.82131569 -22.11723776 64.20115896 -15.83203125 63.3203125 C-9.09720891 61.46562821 -5.31635372 57.20010666 -1.83203125 51.3203125 C1.28660937 44.65776208 1.0036449 37.97739249 -1.39453125 31.1328125 C-4.07688052 24.99491008 -8.62527657 20.83472772 -14.83203125 18.3203125 C-23.19773995 17.29252543 -30.52968715 17.89312359 -36.58203125 24.12109375 Z M-42.83203125 72.3203125 C-41.83203125 74.3203125 -41.83203125 74.3203125 -41.83203125 74.3203125 Z " fill="#FFC801" transform="translate(249.83203125,72.6796875)"/>
<path d="M0 0 C9.2183631 6.42700829 14.53402484 14.59394632 17.02734375 25.51953125 C19.33246528 38.53428819 19.33246528 38.53428819 16.77734375 43.64453125 C-3.02265625 43.64453125 -22.82265625 43.64453125 -43.22265625 43.64453125 C-39.3208594 54.11797908 -39.3208594 54.11797908 -30.92578125 59.7421875 C-25.22284516 61.64591327 -18.39123175 61.85018419 -12.73828125 59.69921875 C-8.75212602 57.31651694 -5.86539813 54.49852982 -3.22265625 50.64453125 C1.33050323 51.26264659 5.06194142 53.11219018 9.08984375 55.20703125 C9.73501953 55.53638672 10.38019531 55.86574219 11.04492188 56.20507812 C12.62519603 57.0127738 14.2016648 57.82790738 15.77734375 58.64453125 C14.9676405 64.95577987 11.30074116 68.42616557 6.77734375 72.64453125 C-4.41351848 80.94800755 -16.41504831 83.56553409 -30.16015625 82.08203125 C-41.69624035 80.16355774 -51.04732296 74.95115166 -58.22265625 65.64453125 C-65.44353779 53.85818912 -68.09269594 42.35972217 -65.6875 28.578125 C-62.52172731 16.13992518 -56.18827602 6.0761686 -45.09765625 -0.85546875 C-31.99096124 -8.44587798 -12.7898694 -7.79979733 0 0 Z M-40.90234375 22.70703125 C-42.50422126 24.66694937 -42.50422126 24.66694937 -42.22265625 27.64453125 C-29.68265625 27.64453125 -17.14265625 27.64453125 -4.22265625 27.64453125 C-6.41249093 21.07502722 -8.28759053 18.72055335 -13.78515625 14.83203125 C-25.13397991 10.91152853 -33.32996479 14.05288387 -40.90234375 22.70703125 Z " fill="#FFC801" transform="translate(650.22265625,75.35546875)"/>
<path d="M0 0 C7.59 0 15.18 0 23 0 C23.01401855 2.40659912 23.01401855 2.40659912 23.02832031 4.86181641 C23.06823277 10.82205837 23.13399649 16.78178488 23.20751953 22.74169922 C23.23572159 25.31975679 23.25693987 27.89790071 23.27099609 30.47607422 C23.29243509 34.18501975 23.33909396 37.89292793 23.390625 41.6015625 C23.39185364 42.75177887 23.39308228 43.90199524 23.39434814 45.08706665 C23.50821046 51.32722149 23.74870358 55.28298567 28 60 C32.41945672 63.12067761 37.82902718 62.57121211 43 62 C48.54606122 59.74049358 50.43197316 56.00414479 52.9324646 50.84503174 C54.71407215 46.09696435 54.72682315 41.54774267 54.70703125 36.5234375 C54.72215256 35.47217682 54.73727386 34.42091614 54.75285339 33.33779907 C54.79546005 30.01664322 54.80454253 26.69640099 54.8125 23.375 C54.83566521 21.10804908 54.86103472 18.84111956 54.88867188 16.57421875 C54.95536262 11.04899165 54.9766017 5.52625361 55 0 C62.59 0 70.18 0 78 0 C78 27.06 78 54.12 78 82 C71.07 82 64.14 82 57 82 C56.67 78.7 56.34 75.4 56 72 C55.360625 72.886875 54.72125 73.77375 54.0625 74.6875 C48.58123222 81.16397003 41.37060982 83.75082048 33.12109375 84.84375 C23.24549835 85.33814777 15.77294113 82.90028724 8.3203125 76.57421875 C0.83283858 69.06811927 -0.45582124 57.8038796 -0.45318604 47.68412781 C-0.43254089 46.48254532 -0.41189575 45.28096283 -0.390625 44.04296875 C-0.38496521 42.77399246 -0.37930542 41.50501617 -0.37347412 40.19758606 C-0.3550577 36.87148475 -0.31931443 33.54654698 -0.2746582 30.22076416 C-0.23327127 26.80808402 -0.21537183 23.39528221 -0.1953125 19.98242188 C-0.1515045 13.32126066 -0.08261246 6.66078837 0 0 Z " fill="#FFC801" transform="translate(285,73)"/>
<path d="M0 0 C22.44 0 44.88 0 68 0 C68 18 68 18 65.03515625 22.90625 C63.75431319 24.15043676 62.42793466 25.34928378 61.0625 26.5 C59.67131403 27.81841874 58.28068647 29.13742696 56.890625 30.45703125 C56.21580078 31.06627441 55.54097656 31.67551758 54.84570312 32.30322266 C52.49965469 34.45997353 50.40253571 36.78395893 48.3125 39.1875 C44.32148085 43.66411844 40.25370907 48.06588959 36.15942383 52.44799805 C35.67755615 52.966604 35.19568848 53.48520996 34.69921875 54.01953125 C34.27471436 54.47432861 33.85020996 54.92912598 33.4128418 55.39770508 C31.53068374 57.53224859 29.77778102 59.77777373 28 62 C47.8 62.495 47.8 62.495 68 63 C68 69.27 68 75.54 68 82 C44.9 82 21.8 82 -2 82 C-2 63 -2 63 1.25390625 57.70703125 C2.64343554 56.35901918 4.08115752 55.05891592 5.5625 53.8125 C6.98159718 52.48688406 8.39957347 51.16006713 9.81640625 49.83203125 C10.87299438 48.88420776 10.87299438 48.88420776 11.95092773 47.91723633 C14.59951588 45.43905657 16.92688036 42.75433383 19.27856445 39.99731445 C22.77531015 35.94017695 26.50769869 32.09371575 30.18945312 28.20507812 C31.07987305 27.25858398 31.07987305 27.25858398 31.98828125 26.29296875 C32.51977783 25.7311792 33.05127441 25.16938965 33.59887695 24.59057617 C35.2012489 22.84302434 35.2012489 22.84302434 37 20 C18.685 19.505 18.685 19.505 0 19 C0 12.73 0 6.46 0 0 Z " fill="#FFC801" transform="translate(463,73)"/>
<path d="M0 0 C22.44 0 44.88 0 68 0 C68 18 68 18 65.03515625 22.90625 C63.75431319 24.15043676 62.42793466 25.34928378 61.0625 26.5 C59.67131403 27.81841874 58.28068647 29.13742696 56.890625 30.45703125 C56.21580078 31.06627441 55.54097656 31.67551758 54.84570312 32.30322266 C52.49965469 34.45997353 50.40253571 36.78395893 48.3125 39.1875 C44.32148085 43.66411844 40.25370907 48.06588959 36.15942383 52.44799805 C35.67755615 52.966604 35.19568848 53.48520996 34.69921875 54.01953125 C34.27471436 54.47432861 33.85020996 54.92912598 33.4128418 55.39770508 C31.53068374 57.53224859 29.77778102 59.77777373 28 62 C47.8 62.495 47.8 62.495 68 63 C68 69.27 68 75.54 68 82 C44.9 82 21.8 82 -2 82 C-2 63 -2 63 1.25390625 57.70703125 C2.64343554 56.35901918 4.08115752 55.05891592 5.5625 53.8125 C6.98159718 52.48688406 8.39957347 51.16006713 9.81640625 49.83203125 C10.87299438 48.88420776 10.87299438 48.88420776 11.95092773 47.91723633 C14.59951588 45.43905657 16.92688036 42.75433383 19.27856445 39.99731445 C22.77531015 35.94017695 26.50769869 32.09371575 30.18945312 28.20507812 C31.07987305 27.25858398 31.07987305 27.25858398 31.98828125 26.29296875 C32.51977783 25.7311792 33.05127441 25.16938965 33.59887695 24.59057617 C35.2012489 22.84302434 35.2012489 22.84302434 37 20 C18.685 19.505 18.685 19.505 0 19 C0 12.73 0 6.46 0 0 Z " fill="#FFC801" transform="translate(382,73)"/>
<path d="M0 0 C7.26 0 14.52 0 22 0 C22 38.94 22 77.88 22 118 C14.74 118 7.48 118 0 118 C0 79.06 0 40.12 0 0 Z " fill="#FFC801" transform="translate(548,37)"/>
</svg>
